<svg width="50" height="50" viewBox="0 0 50 50" fill="none" xmlns="http://www.w3.org/2000/svg">
<path d="M21.211 6C8.579 6 1 16.133 1 21.2C1 26.267 3.526 30.067 8.579 30.067C13.632 30.067 16.159 31.333 16.159 35.133C16.159 40.199 19.948 43.999 25.001 43.999C41.423 43.999 49.001 35.133 49.001 26.267C49 11.067 36.366 6 21.211 6ZM18.053 11.067C18.4682 11.0675 18.8793 11.1498 19.2627 11.3092C19.6462 11.4686 19.9945 11.702 20.2877 11.996C20.5809 12.2899 20.8134 12.6388 20.9718 13.0226C21.1303 13.4065 21.2115 13.8178 21.211 14.233C21.211 15.983 19.797 17.4 18.053 17.4C16.309 17.4 14.895 15.982 14.895 14.233C14.8945 13.8178 14.9757 13.4065 15.1342 13.0226C15.2926 12.6388 15.5251 12.2899 15.8183 11.996C16.1115 11.702 16.4598 11.4686 16.8433 11.3092C17.2267 11.1498 17.6378 11.0675 18.053 11.067V11.067ZM28.157 11.067C28.5722 11.0675 28.9833 11.1498 29.3667 11.3092C29.7502 11.4686 30.0985 11.702 30.3917 11.996C30.6849 12.2899 30.9174 12.6388 31.0758 13.0226C31.2343 13.4065 31.3155 13.8178 31.315 14.233C31.3157 14.6483 31.2345 15.0597 31.0761 15.4437C30.9178 15.8276 30.6853 16.1766 30.3921 16.4707C30.0988 16.7648 29.7505 16.9982 29.367 17.1577C28.9835 17.3171 28.5723 17.3995 28.157 17.4C27.7418 17.3993 27.3307 17.3169 26.9473 17.1574C26.564 16.9979 26.2157 16.7644 25.9226 16.4703C25.6294 16.1763 25.3971 15.8273 25.2388 15.4434C25.0805 15.0595 24.9993 14.6482 25 14.233C24.9989 13.3946 25.3309 12.59 25.9229 11.9963C26.515 11.4026 27.3186 11.0683 28.157 11.067V11.067ZM38.263 16.133C38.6784 16.1334 39.0897 16.2156 39.4733 16.375C39.8569 16.5344 40.2053 16.7678 40.4987 17.062C40.7921 17.3561 41.0246 17.7051 41.183 18.0891C41.3415 18.4731 41.4227 18.8846 41.422 19.3C41.4227 19.7154 41.3414 20.1268 41.183 20.5107C41.0246 20.8947 40.792 21.2437 40.4986 21.5377C40.2053 21.8317 39.8568 22.065 39.4732 22.2243C39.0896 22.3836 38.6784 22.4657 38.263 22.466C37.8478 22.4656 37.4367 22.3834 37.0533 22.224C36.6698 22.0647 36.3216 21.8313 36.0284 21.5373C35.7352 21.2432 35.5028 20.8943 35.3445 20.5104C35.1863 20.1265 35.1052 19.7152 35.106 19.3C35.1052 18.8847 35.1863 18.4734 35.3445 18.0894C35.5028 17.7055 35.7351 17.3565 36.0283 17.0624C36.3215 16.7683 36.6697 16.5348 37.0532 16.3753C37.4366 16.2159 37.8477 16.1335 38.263 16.133V16.133ZM9.211 18.667C9.62615 18.6674 10.0371 18.7496 10.4205 18.9089C10.8039 19.0682 11.1521 19.3014 11.4453 19.5954C11.7385 19.8893 11.9709 20.2381 12.1292 20.6219C12.2875 21.0056 12.3687 21.4169 12.368 21.832C12.368 23.582 10.954 24.999 9.211 24.999C7.468 24.999 6.053 23.581 6.053 21.832C6.0522 20.9936 6.38444 20.1891 6.97665 19.5956C7.56886 19.0021 8.37256 18.6681 9.211 18.667V18.667ZM25 31.333C27.093 31.333 28.789 33.033 28.789 35.134C28.789 37.232 27.093 38.933 25 38.933C22.907 38.933 21.211 37.232 21.211 35.134C21.2101 34.6356 21.3074 34.1419 21.4973 33.6811C21.6873 33.2203 21.9661 32.8015 22.318 32.4485C22.6699 32.0955 23.0878 31.8153 23.548 31.6239C24.0082 31.4325 24.5016 31.3337 25 31.333V31.333Z" fill="black"/>
</svg>
