<svg width="45" height="45" viewBox="0 0 45 45" fill="none" xmlns="http://www.w3.org/2000/svg">
<path d="M42.1373 21.6125L23.3873 2.86251C23.1531 2.6297 22.8363 2.49902 22.506 2.49902C22.1758 2.49902 21.859 2.6297 21.6248 2.86251L2.87479 21.6125C2.67001 21.8516 2.563 22.1592 2.57515 22.4738C2.5873 22.7884 2.71772 23.0869 2.94034 23.3095C3.16295 23.5321 3.46138 23.6625 3.77597 23.6747C4.09057 23.6868 4.39816 23.5798 4.63729 23.375L22.4998 5.51251L40.3623 23.3875C40.6014 23.5923 40.909 23.6993 41.2236 23.6872C41.5382 23.675 41.8366 23.5446 42.0592 23.322C42.2819 23.0994 42.4123 22.8009 42.4244 22.4863C42.4366 22.1717 42.3296 21.8641 42.1248 21.625L42.1373 21.6125Z" fill="black"/>
<path d="M35 40H28.75V27.5H16.25V40H10V22.5L7.5 25V40C7.5 40.6631 7.76339 41.2989 8.23223 41.7678C8.70107 42.2366 9.33696 42.5 10 42.5H18.75V30H26.25V42.5H35C35.663 42.5 36.2989 42.2366 36.7678 41.7678C37.2366 41.2989 37.5 40.6631 37.5 40V24.7L35 22.2V40Z" fill="black"/>
</svg>
