<svg width="70" height="72" viewBox="0 0 70 72" fill="none" xmlns="http://www.w3.org/2000/svg">
<g clip-path="url(#clip0_32_168)">
<path d="M6.49953 17.5825C4.78144 17.5825 3.13373 18.2854 1.91886 19.5365C0.703991 20.7876 0.0214844 22.4845 0.0214844 24.2538L0.0214844 64.2814C0.0214844 66.0508 0.703991 67.7476 1.91886 68.9987C3.13373 70.2498 4.78144 70.9527 6.49953 70.9527H62.6426C64.3607 70.9527 66.0084 70.2498 67.2233 68.9987C68.4381 67.7476 69.1206 66.0508 69.1206 64.2814V24.2538C69.1206 22.4845 68.4381 20.7876 67.2233 19.5365C66.0084 18.2854 64.3607 17.5825 62.6426 17.5825H6.49953ZM62.6426 22.03C63.2153 22.03 63.7645 22.2643 64.1695 22.6814C64.5744 23.0984 64.8019 23.664 64.8019 24.2538V50.9389L48.4989 42.2796C48.0939 42.0706 47.6353 41.9982 47.1881 42.0724C46.7409 42.1466 46.3277 42.3638 46.007 42.6932L29.9846 59.1935L18.4969 51.3125C18.0821 51.0281 17.5846 50.9002 17.0887 50.9504C16.5928 51.0007 16.1291 51.226 15.7761 51.5882L4.34882 62.0577V64.4593C4.34366 64.4002 4.34077 64.3408 4.34018 64.2814V24.2538C4.34018 23.664 4.56768 23.0984 4.97264 22.6814C5.3776 22.2643 5.92683 22.03 6.49953 22.03H62.6426Z" fill="black"/>
</g>
<defs>
<clipPath id="clip0_32_168">
<rect width="69.0991" height="71.1602" fill="white" transform="translate(0.0214844 0.0577393)"/>
</clipPath>
</defs>
</svg>
