<svg width="68" height="70" viewBox="0 0 68 70" fill="none" xmlns="http://www.w3.org/2000/svg">
<path d="M34.2199 7.06871C33.9692 6.9893 33.7039 6.97159 33.4454 7.017C33.1868 7.06242 32.9423 7.16969 32.7313 7.33018C32.5204 7.49068 32.3489 7.69992 32.2308 7.94108C32.1127 8.18223 32.0512 8.44857 32.0512 8.71867V42.9088C30.2209 41.1004 27.8351 40.0064 25.3054 39.8156C22.7757 39.6248 20.2606 40.3491 18.1939 41.8635C16.1272 43.378 14.6385 45.5877 13.9845 48.1116C13.3305 50.6354 13.5523 53.3152 14.6115 55.6887C15.6707 58.0622 17.501 59.9806 19.7868 61.1131C22.0725 62.2457 24.6703 62.5212 27.1322 61.8924C29.5941 61.2635 31.7657 59.7696 33.2726 57.6683C34.7794 55.567 35.527 52.9901 35.3863 50.3819C35.3973 50.3019 35.4029 50.2211 35.4031 50.1403V24.8628L55.0213 31.076C55.2717 31.1553 55.5367 31.1731 55.795 31.1278C56.0533 31.0826 56.2976 30.9757 56.5085 30.8155C56.7194 30.6554 56.8909 30.4467 57.0092 30.2059C57.1276 29.9652 57.1895 29.6993 57.1899 29.4295V20.7206C57.1903 18.8747 56.6159 17.0773 55.5511 15.5925C54.4863 14.1076 52.9872 13.0135 51.274 12.4708L34.2199 7.06871V7.06871Z" fill="black"/>
</svg>
