<svg width="61" height="67" viewBox="0 0 61 67" fill="none" xmlns="http://www.w3.org/2000/svg">
<g clip-path="url(#clip0_32_178)">
<path fill-rule="evenodd" clip-rule="evenodd" d="M0.944336 3.05195C0.944336 2.50618 1.14128 1.98277 1.49184 1.59686C1.8424 1.21094 2.31786 0.994141 2.81362 0.994141L17.7679 0.994141C18.2637 0.994141 18.7391 1.21094 19.0897 1.59686C19.4403 1.98277 19.6372 2.50618 19.6372 3.05195C19.6372 3.59771 19.4403 4.12112 19.0897 4.50703C18.7391 4.89295 18.2637 5.10975 17.7679 5.10975H2.81362C2.31786 5.10975 1.8424 4.89295 1.49184 4.50703C1.14128 4.12112 0.944336 3.59771 0.944336 3.05195V3.05195ZM0.944336 11.2832C0.944336 10.7374 1.14128 10.214 1.49184 9.82808C1.8424 9.44217 2.31786 9.22536 2.81362 9.22536H28.9836C29.4794 9.22536 29.9549 9.44217 30.3054 9.82808C30.656 10.214 30.8529 10.7374 30.8529 11.2832C30.8529 11.8289 30.656 12.3523 30.3054 12.7383C29.9549 13.1242 29.4794 13.341 28.9836 13.341H2.81362C2.31786 13.341 1.8424 13.1242 1.49184 12.7383C1.14128 12.3523 0.944336 11.8289 0.944336 11.2832ZM34.5915 11.2832C34.5915 10.7374 34.7884 10.214 35.139 9.82808C35.4896 9.44217 35.965 9.22536 36.4608 9.22536H55.1536C55.6494 9.22536 56.1249 9.44217 56.4754 9.82808C56.826 10.214 57.0229 10.7374 57.0229 11.2832C57.0229 11.8289 56.826 12.3523 56.4754 12.7383C56.1249 13.1242 55.6494 13.341 55.1536 13.341H36.4608C35.965 13.341 35.4896 13.1242 35.139 12.7383C34.7884 12.3523 34.5915 11.8289 34.5915 11.2832ZM0.944336 19.5144C0.944336 18.9686 1.14128 18.4452 1.49184 18.0593C1.8424 17.6734 2.31786 17.4566 2.81362 17.4566H14.0293C14.5251 17.4566 15.0006 17.6734 15.3511 18.0593C15.7017 18.4452 15.8986 18.9686 15.8986 19.5144C15.8986 20.0602 15.7017 20.5836 15.3511 20.9695C15.0006 21.3554 14.5251 21.5722 14.0293 21.5722H2.81362C2.31786 21.5722 1.8424 21.3554 1.49184 20.9695C1.14128 20.5836 0.944336 20.0602 0.944336 19.5144ZM19.6372 19.5144C19.6372 18.9686 19.8341 18.4452 20.1847 18.0593C20.5353 17.6734 21.0107 17.4566 21.5065 17.4566H40.1994C40.6951 17.4566 41.1706 17.6734 41.5211 18.0593C41.8717 18.4452 42.0686 18.9686 42.0686 19.5144C42.0686 20.0602 41.8717 20.5836 41.5211 20.9695C41.1706 21.3554 40.6951 21.5722 40.1994 21.5722H21.5065C21.0107 21.5722 20.5353 21.3554 20.1847 20.9695C19.8341 20.5836 19.6372 20.0602 19.6372 19.5144ZM45.8072 19.5144C45.8072 18.9686 46.0042 18.4452 46.3547 18.0593C46.7053 17.6734 47.1807 17.4566 47.6765 17.4566H58.8922C59.388 17.4566 59.8634 17.6734 60.214 18.0593C60.5646 18.4452 60.7615 18.9686 60.7615 19.5144C60.7615 20.0602 60.5646 20.5836 60.214 20.9695C59.8634 21.3554 59.388 21.5722 58.8922 21.5722H47.6765C47.1807 21.5722 46.7053 21.3554 46.3547 20.9695C46.0042 20.5836 45.8072 20.0602 45.8072 19.5144ZM0.944336 27.7456C0.944336 27.1998 1.14128 26.6764 1.49184 26.2905C1.8424 25.9046 2.31786 25.6878 2.81362 25.6878H25.2451C25.7408 25.6878 26.2163 25.9046 26.5668 26.2905C26.9174 26.6764 27.1143 27.1998 27.1143 27.7456C27.1143 28.2914 26.9174 28.8148 26.5668 29.2007C26.2163 29.5866 25.7408 29.8034 25.2451 29.8034H2.81362C2.31786 29.8034 1.8424 29.5866 1.49184 29.2007C1.14128 28.8148 0.944336 28.2914 0.944336 27.7456ZM30.8529 27.7456C30.8529 27.1998 31.0499 26.6764 31.4004 26.2905C31.751 25.9046 32.2264 25.6878 32.7222 25.6878H51.4151C51.9108 25.6878 52.3863 25.9046 52.7369 26.2905C53.0874 26.6764 53.2844 27.1998 53.2844 27.7456C53.2844 28.2914 53.0874 28.8148 52.7369 29.2007C52.3863 29.5866 51.9108 29.8034 51.4151 29.8034H32.7222C32.2264 29.8034 31.751 29.5866 31.4004 29.2007C31.0499 28.8148 30.8529 28.2914 30.8529 27.7456ZM0.944336 35.9768C0.944336 35.4311 1.14128 34.9077 1.49184 34.5217C1.8424 34.1358 2.31786 33.919 2.81362 33.919H21.5065C22.0023 33.919 22.4777 34.1358 22.8283 34.5217C23.1788 34.9077 23.3758 35.4311 23.3758 35.9768C23.3758 36.5226 23.1788 37.046 22.8283 37.4319C22.4777 37.8178 22.0023 38.0346 21.5065 38.0346H2.81362C2.31786 38.0346 1.8424 37.8178 1.49184 37.4319C1.14128 37.046 0.944336 36.5226 0.944336 35.9768ZM27.1143 35.9768C27.1143 35.4311 27.3113 34.9077 27.6618 34.5217C28.0124 34.1358 28.4879 33.919 28.9836 33.919H55.1536C55.6494 33.919 56.1249 34.1358 56.4754 34.5217C56.826 34.9077 57.0229 35.4311 57.0229 35.9768C57.0229 36.5226 56.826 37.046 56.4754 37.4319C56.1249 37.8178 55.6494 38.0346 55.1536 38.0346H28.9836C28.4879 38.0346 28.0124 37.8178 27.6618 37.4319C27.3113 37.046 27.1143 36.5226 27.1143 35.9768ZM0.944336 44.2081C0.944336 43.6623 1.14128 43.1389 1.49184 42.753C1.8424 42.3671 2.31786 42.1503 2.81362 42.1503H32.7222C33.218 42.1503 33.6934 42.3671 34.044 42.753C34.3946 43.1389 34.5915 43.6623 34.5915 44.2081C34.5915 44.7538 34.3946 45.2772 34.044 45.6631C33.6934 46.0491 33.218 46.2659 32.7222 46.2659H2.81362C2.31786 46.2659 1.8424 46.0491 1.49184 45.6631C1.14128 45.2772 0.944336 44.7538 0.944336 44.2081ZM0.944336 52.4393C0.944336 51.8935 1.14128 51.3701 1.49184 50.9842C1.8424 50.5983 2.31786 50.3815 2.81362 50.3815H17.7679C18.2637 50.3815 18.7391 50.5983 19.0897 50.9842C19.4403 51.3701 19.6372 51.8935 19.6372 52.4393C19.6372 52.985 19.4403 53.5085 19.0897 53.8944C18.7391 54.2803 18.2637 54.4971 17.7679 54.4971H2.81362C2.31786 54.4971 1.8424 54.2803 1.49184 53.8944C1.14128 53.5085 0.944336 52.985 0.944336 52.4393ZM0.944336 60.6705C0.944336 60.1247 1.14128 59.6013 1.49184 59.2154C1.8424 58.8295 2.31786 58.6127 2.81362 58.6127H10.2908C10.7865 58.6127 11.262 58.8295 11.6126 59.2154C11.9631 59.6013 12.1601 60.1247 12.1601 60.6705C12.1601 61.2163 11.9631 61.7397 11.6126 62.1256C11.262 62.5115 10.7865 62.7283 10.2908 62.7283H2.81362C2.31786 62.7283 1.8424 62.5115 1.49184 62.1256C1.14128 61.7397 0.944336 61.2163 0.944336 60.6705Z" fill="black"/>
</g>
<defs>
<clipPath id="clip0_32_178">
<rect width="59.8172" height="65.8498" fill="white" transform="translate(0.944336 0.994141)"/>
</clipPath>
</defs>
</svg>
